<?xml version="1.0" encoding="UTF-8" standalone="no"?>
<svg
   xmlns:dc="http://purl.org/dc/elements/1.1/"
   xmlns:cc="http://creativecommons.org/ns#"
   xmlns:rdf="http://www.w3.org/1999/02/22-rdf-syntax-ns#"
   xmlns:svg="http://www.w3.org/2000/svg"
   xmlns="http://www.w3.org/2000/svg"
   id="svg5570"
   version="1.1"
   viewBox="0 0 512 512"
   height="512mm"
   width="512mm">
  <defs
     id="defs5564">
    <clipPath
       id="clipPath416"
       clipPathUnits="userSpaceOnUse">
      <path
         id="path414"
         d="m 106.521,505.844 h 53.4 v -53.401 h -53.4 z" />
    </clipPath>
    <clipPath
       id="clipPath432"
       clipPathUnits="userSpaceOnUse">
      <path
         id="path430"
         d="m 107.103,505.263 h 53.4 v -53.401 h -53.4 z" />
    </clipPath>
    <clipPath
       id="clipPath452"
       clipPathUnits="userSpaceOnUse">
      <path
         id="path450"
         d="m 121.394,490.97 h 53.401 v -53.4 h -53.401 z" />
    </clipPath>
    <clipPath
       id="clipPath468"
       clipPathUnits="userSpaceOnUse">
      <path
         id="path466"
         d="m 121.976,490.39 h 53.4 v -53.401 h -53.4 z" />
    </clipPath>
    <clipPath
       id="clipPath488"
       clipPathUnits="userSpaceOnUse">
      <path
         id="path486"
         d="M 252.477,497.736 H 303.71 V 458.461 H 252.477 Z" />
    </clipPath>
    <clipPath
       id="clipPath516"
       clipPathUnits="userSpaceOnUse">
      <path
         id="path514"
         d="m 260.136,464.691 h 34.022 v -18.162 h -34.022 z" />
    </clipPath>
    <clipPath
       id="clipPath1186"
       clipPathUnits="userSpaceOnUse">
      <path
         id="path1184"
         d="m 371.012,489.894 h 13.025 v -36.841 h -13.025 z" />
    </clipPath>
    <clipPath
       id="clipPath1238"
       clipPathUnits="userSpaceOnUse">
      <path
         id="path1236"
         d="m 416.701,489.894 h 13.026 v -36.841 h -13.026 z" />
    </clipPath>
    <clipPath
       id="clipPath1290"
       clipPathUnits="userSpaceOnUse">
      <path
         id="path1288"
         d="m 381.949,500.831 h 36.84 v -13.025 h -36.84 z" />
    </clipPath>
    <clipPath
       id="clipPath1342"
       clipPathUnits="userSpaceOnUse">
      <path
         id="path1340"
         d="m 381.949,455.141 h 36.84 v -13.025 h -36.84 z" />
    </clipPath>
    <clipPath
       id="clipPath1378"
       clipPathUnits="userSpaceOnUse">
      <path
         id="path1376"
         d="M 377.82,494.007 H 422.9 V 448.929 H 377.82 Z" />
    </clipPath>
    <clipPath
       id="clipPath1398"
       clipPathUnits="userSpaceOnUse">
      <path
         id="path1396"
         d="m 372.796,499.034 h 55.132 v -28.96 h -55.132 z" />
    </clipPath>
    <clipPath
       id="clipPath1422"
       clipPathUnits="userSpaceOnUse">
      <path
         id="path1420"
         d="m 390.837,480.992 h 19.048 v -10.918 h -19.048 z" />
    </clipPath>
  </defs>
  <metadata
     id="metadata5567">
    <rdf:RDF>
      <cc:Work
         rdf:about="">
        <dc:format>image/svg+xml</dc:format>
        <dc:type
           rdf:resource="http://purl.org/dc/dcmitype/StillImage" />
        <dc:title></dc:title>
      </cc:Work>
    </rdf:RDF>
  </metadata>
  <g
     transform="translate(0,215)"
     id="layer1">
    <g
       style="stroke-width:0.05060491"
       id="g6171"
       transform="matrix(6.9712169,0,0,-6.9712169,-724.48669,3324.4963)">
      <g
         style="stroke-width:0.0025651"
         id="g6319"
         transform="matrix(0.9983449,0,0,0.9983449,-259.41194,0.09167771)">
        <g
           style="stroke-width:0.0025651"
           id="g1160"
           transform="translate(381.6348,457.8574)">
          <path
             d="M 0,0 C 1.326,0 2.402,-1.075 2.402,-2.402 2.402,-3.729 1.326,-4.805 0,-4.805 h -13.348 c -1.326,0 -2.402,1.076 -2.402,2.403 0,1.327 1.076,2.402 2.402,2.402 z"
             style="fill:#dce2e9;fill-opacity:1;fill-rule:nonzero;stroke:none;stroke-width:0.0025651"
             id="path1162" />
        </g>
        <g
           style="stroke-width:0.0025651"
           id="g1164"
           transform="translate(381.6348,465.8657)">
          <path
             d="M 0,0 C 1.326,0 2.402,-1.075 2.402,-2.402 2.402,-3.728 1.326,-4.805 0,-4.805 h -13.348 c -1.326,0 -2.402,1.077 -2.402,2.403 0,1.327 1.076,2.402 2.402,2.402 z"
             style="fill:#dce2e9;fill-opacity:1;fill-rule:nonzero;stroke:none;stroke-width:0.0025651"
             id="path1166" />
        </g>
        <g
           style="stroke-width:0.0025651"
           id="g1168"
           transform="translate(381.6348,473.876)">
          <path
             d="m 0,0 c 1.326,0 2.402,-1.078 2.402,-2.405 0,-1.327 -1.076,-2.4 -2.402,-2.4 h -13.348 c -1.326,0 -2.402,1.073 -2.402,2.4 0,1.327 1.076,2.405 2.402,2.405 z"
             style="fill:#dce2e9;fill-opacity:1;fill-rule:nonzero;stroke:none;stroke-width:0.0025651"
             id="path1170" />
        </g>
        <g
           style="stroke-width:0.0025651"
           id="g1172"
           transform="translate(381.6348,481.8813)">
          <path
             d="M 0,0 C 1.326,0 2.402,-1.073 2.402,-2.401 2.402,-3.726 1.326,-4.805 0,-4.805 h -13.348 c -1.326,0 -2.402,1.079 -2.402,2.404 0,1.328 1.076,2.401 2.402,2.401 z"
             style="fill:#dce2e9;fill-opacity:1;fill-rule:nonzero;stroke:none;stroke-width:0.0025651"
             id="path1174" />
        </g>
        <g
           style="stroke-width:0.0025651"
           id="g1176"
           transform="translate(381.6348,489.8936)">
          <path
             d="m 0,0 c 1.326,0 2.402,-1.08 2.402,-2.404 0,-1.328 -1.076,-2.4 -2.402,-2.4 h -13.348 c -1.326,0 -2.402,1.072 -2.402,2.4 0,1.324 1.076,2.404 2.402,2.404 z"
             style="fill:#dce2e9;fill-opacity:1;fill-rule:nonzero;stroke:none;stroke-width:0.0025651"
             id="path1178" />
        </g>
        <g
           style="stroke-width:0.0025651"
           id="g1180">
          <g
             style="stroke-width:0.0025651"
             id="g1182" />
          <g
             style="stroke-width:0.0025651"
             id="g1210">
            <g
               style="stroke-width:0.0025651"
               clip-path="url(#clipPath1186)"
               id="g1208">
              <g
                 style="stroke-width:0.0025651"
                 transform="translate(371.0117,453.0527)"
                 id="g1190">
                <path
                   d="m 0,0 h 10.623 c 1.326,0 2.402,1.076 2.402,2.403 0,1.326 -1.076,2.402 -2.402,2.402 H 0 Z"
                   style="fill:#dce2e9;fill-opacity:1;fill-rule:nonzero;stroke:none;stroke-width:0.0025651"
                   id="path1188" />
              </g>
              <g
                 style="stroke-width:0.0025651"
                 transform="translate(371.0117,461.0605)"
                 id="g1194">
                <path
                   d="m 0,0 h 10.623 c 1.326,0 2.402,1.077 2.402,2.403 0,1.327 -1.076,2.402 -2.402,2.402 H 0 Z"
                   style="fill:#dce2e9;fill-opacity:1;fill-rule:nonzero;stroke:none;stroke-width:0.0025651"
                   id="path1192" />
              </g>
              <g
                 style="stroke-width:0.0025651"
                 transform="translate(371.0117,469.0708)"
                 id="g1198">
                <path
                   d="m 0,0 h 10.623 c 1.326,0 2.402,1.073 2.402,2.4 0,1.328 -1.076,2.405 -2.402,2.405 H 0 Z"
                   style="fill:#dce2e9;fill-opacity:1;fill-rule:nonzero;stroke:none;stroke-width:0.0025651"
                   id="path1196" />
              </g>
              <g
                 style="stroke-width:0.0025651"
                 transform="translate(371.0117,477.0767)"
                 id="g1202">
                <path
                   d="m 0,0 h 10.623 c 1.326,0 2.402,1.079 2.402,2.404 0,1.328 -1.076,2.401 -2.402,2.401 H 0 Z"
                   style="fill:#dce2e9;fill-opacity:1;fill-rule:nonzero;stroke:none;stroke-width:0.0025651"
                   id="path1200" />
              </g>
              <g
                 style="stroke-width:0.0025651"
                 transform="translate(371.0117,485.0894)"
                 id="g1206">
                <path
                   d="m 0,0 h 10.623 c 1.326,0 2.402,1.072 2.402,2.4 0,1.325 -1.076,2.404 -2.402,2.404 H 0 Z"
                   style="fill:#dce2e9;fill-opacity:1;fill-rule:nonzero;stroke:none;stroke-width:0.0025651"
                   id="path1204" />
              </g>
            </g>
          </g>
        </g>
        <g
           style="stroke-width:0.0025651"
           id="g1212"
           transform="translate(419.1035,485.0894)">
          <path
             d="m 0,0 c -1.326,0 -2.402,1.075 -2.402,2.401 0,1.328 1.076,2.403 2.402,2.403 h 13.348 c 1.326,0 2.402,-1.075 2.402,-2.403 C 15.75,1.075 14.674,0 13.348,0 Z"
             style="fill:#dce2e9;fill-opacity:1;fill-rule:nonzero;stroke:none;stroke-width:0.0025651"
             id="path1214" />
        </g>
        <g
           style="stroke-width:0.0025651"
           id="g1216"
           transform="translate(419.1035,477.0806)">
          <path
             d="m 0,0 c -1.326,0 -2.402,1.075 -2.402,2.402 0,1.326 1.076,2.404 2.402,2.404 h 13.348 c 1.326,0 2.402,-1.078 2.402,-2.404 C 15.75,1.075 14.674,0 13.348,0 Z"
             style="fill:#dce2e9;fill-opacity:1;fill-rule:nonzero;stroke:none;stroke-width:0.0025651"
             id="path1218" />
        </g>
        <g
           style="stroke-width:0.0025651"
           id="g1220"
           transform="translate(419.1035,469.0708)">
          <path
             d="m 0,0 c -1.326,0 -2.402,1.077 -2.402,2.405 0,1.327 1.076,2.4 2.402,2.4 h 13.348 c 1.326,0 2.402,-1.073 2.402,-2.4 C 15.75,1.077 14.674,0 13.348,0 Z"
             style="fill:#dce2e9;fill-opacity:1;fill-rule:nonzero;stroke:none;stroke-width:0.0025651"
             id="path1222" />
        </g>
        <g
           style="stroke-width:0.0025651"
           id="g1224"
           transform="translate(419.1035,461.0649)">
          <path
             d="m 0,0 c -1.326,0 -2.402,1.073 -2.402,2.401 0,1.325 1.076,2.404 2.402,2.404 h 13.348 c 1.326,0 2.402,-1.079 2.402,-2.404 C 15.75,1.073 14.674,0 13.348,0 Z"
             style="fill:#dce2e9;fill-opacity:1;fill-rule:nonzero;stroke:none;stroke-width:0.0025651"
             id="path1226" />
        </g>
        <g
           style="stroke-width:0.0025651"
           id="g1228"
           transform="translate(419.1035,453.0527)">
          <path
             d="m 0,0 c -1.326,0 -2.402,1.08 -2.402,2.404 0,1.328 1.076,2.401 2.402,2.401 h 13.348 c 1.326,0 2.402,-1.073 2.402,-2.401 C 15.75,1.08 14.674,0 13.348,0 Z"
             style="fill:#dce2e9;fill-opacity:1;fill-rule:nonzero;stroke:none;stroke-width:0.0025651"
             id="path1230" />
        </g>
        <g
           style="stroke-width:0.0025651"
           id="g1232">
          <g
             style="stroke-width:0.0025651"
             id="g1234" />
          <g
             style="stroke-width:0.0025651"
             id="g1262">
            <g
               style="stroke-width:0.0025651"
               clip-path="url(#clipPath1238)"
               id="g1260">
              <g
                 style="stroke-width:0.0025651"
                 transform="translate(429.7266,489.8936)"
                 id="g1242">
                <path
                   d="m 0,0 h -10.623 c -1.326,0 -2.402,-1.075 -2.402,-2.403 0,-1.326 1.076,-2.401 2.402,-2.401 H 0 Z"
                   style="fill:#dce2e9;fill-opacity:1;fill-rule:nonzero;stroke:none;stroke-width:0.0025651"
                   id="path1240" />
              </g>
              <g
                 style="stroke-width:0.0025651"
                 transform="translate(429.7266,481.8862)"
                 id="g1246">
                <path
                   d="m 0,0 h -10.623 c -1.326,0 -2.402,-1.078 -2.402,-2.403 0,-1.327 1.076,-2.403 2.402,-2.403 H 0 Z"
                   style="fill:#dce2e9;fill-opacity:1;fill-rule:nonzero;stroke:none;stroke-width:0.0025651"
                   id="path1244" />
              </g>
              <g
                 style="stroke-width:0.0025651"
                 transform="translate(429.7266,473.876)"
                 id="g1250">
                <path
                   d="m 0,0 h -10.623 c -1.326,0 -2.402,-1.073 -2.402,-2.4 0,-1.328 1.076,-2.405 2.402,-2.405 H 0 Z"
                   style="fill:#dce2e9;fill-opacity:1;fill-rule:nonzero;stroke:none;stroke-width:0.0025651"
                   id="path1248" />
              </g>
              <g
                 style="stroke-width:0.0025651"
                 transform="translate(429.7266,465.8696)"
                 id="g1254">
                <path
                   d="m 0,0 h -10.623 c -1.326,0 -2.402,-1.079 -2.402,-2.404 0,-1.328 1.076,-2.401 2.402,-2.401 H 0 Z"
                   style="fill:#dce2e9;fill-opacity:1;fill-rule:nonzero;stroke:none;stroke-width:0.0025651"
                   id="path1252" />
              </g>
              <g
                 style="stroke-width:0.0025651"
                 transform="translate(429.7266,457.8574)"
                 id="g1258">
                <path
                   d="m 0,0 h -10.623 c -1.326,0 -2.402,-1.073 -2.402,-2.4 0,-1.325 1.076,-2.405 2.402,-2.405 H 0 Z"
                   style="fill:#dce2e9;fill-opacity:1;fill-rule:nonzero;stroke:none;stroke-width:0.0025651"
                   id="path1256" />
              </g>
            </g>
          </g>
        </g>
        <g
           style="stroke-width:0.0025651"
           id="g1264"
           transform="translate(386.7529,490.2075)">
          <path
             d="m 0,0 c 0,-1.326 -1.075,-2.402 -2.401,-2.402 -1.328,0 -2.403,1.076 -2.403,2.402 v 13.348 c 0,1.325 1.075,2.402 2.403,2.402 C -1.075,15.75 0,14.673 0,13.348 Z"
             style="fill:#dce2e9;fill-opacity:1;fill-rule:nonzero;stroke:none;stroke-width:0.0025651"
             id="path1266" />
        </g>
        <g
           style="stroke-width:0.0025651"
           id="g1268"
           transform="translate(394.7617,490.2075)">
          <path
             d="m 0,0 c 0,-1.326 -1.075,-2.402 -2.402,-2.402 -1.327,0 -2.403,1.076 -2.403,2.402 v 13.348 c 0,1.325 1.076,2.402 2.403,2.402 C -1.075,15.75 0,14.673 0,13.348 Z"
             style="fill:#dce2e9;fill-opacity:1;fill-rule:nonzero;stroke:none;stroke-width:0.0025651"
             id="path1270" />
        </g>
        <g
           style="stroke-width:0.0025651"
           id="g1272"
           transform="translate(402.7715,490.2075)">
          <path
             d="m 0,0 c 0,-1.326 -1.077,-2.402 -2.405,-2.402 -1.326,0 -2.4,1.076 -2.4,2.402 v 13.348 c 0,1.325 1.074,2.402 2.4,2.402 C -1.077,15.75 0,14.673 0,13.348 Z"
             style="fill:#dce2e9;fill-opacity:1;fill-rule:nonzero;stroke:none;stroke-width:0.0025651"
             id="path1274" />
        </g>
        <g
           style="stroke-width:0.0025651"
           id="g1276"
           transform="translate(410.7773,490.2075)">
          <path
             d="m 0,0 c 0,-1.326 -1.072,-2.402 -2.4,-2.402 -1.326,0 -2.405,1.076 -2.405,2.402 v 13.348 c 0,1.325 1.079,2.402 2.405,2.402 1.328,0 2.4,-1.077 2.4,-2.402 z"
             style="fill:#dce2e9;fill-opacity:1;fill-rule:nonzero;stroke:none;stroke-width:0.0025651"
             id="path1278" />
        </g>
        <g
           style="stroke-width:0.0025651"
           id="g1280"
           transform="translate(418.7891,490.2075)">
          <path
             d="m 0,0 c 0,-1.326 -1.079,-2.402 -2.404,-2.402 -1.328,0 -2.4,1.076 -2.4,2.402 v 13.348 c 0,1.325 1.072,2.402 2.4,2.402 C -1.079,15.75 0,14.673 0,13.348 Z"
             style="fill:#dce2e9;fill-opacity:1;fill-rule:nonzero;stroke:none;stroke-width:0.0025651"
             id="path1282" />
        </g>
        <g
           style="stroke-width:0.0025651"
           id="g1284">
          <g
             style="stroke-width:0.0025651"
             id="g1286" />
          <g
             style="stroke-width:0.0025651"
             id="g1314">
            <g
               style="stroke-width:0.0025651"
               clip-path="url(#clipPath1290)"
               id="g1312">
              <g
                 style="stroke-width:0.0025651"
                 transform="translate(381.9492,500.8306)"
                 id="g1294">
                <path
                   d="m 0,0 v -10.623 c 0,-1.326 1.074,-2.402 2.402,-2.402 1.327,0 2.402,1.076 2.402,2.402 V 0 Z"
                   style="fill:#dce2e9;fill-opacity:1;fill-rule:nonzero;stroke:none;stroke-width:0.0025651"
                   id="path1292" />
              </g>
              <g
                 style="stroke-width:0.0025651"
                 transform="translate(389.957,500.8306)"
                 id="g1298">
                <path
                   d="m 0,0 v -10.623 c 0,-1.326 1.076,-2.402 2.402,-2.402 1.327,0 2.403,1.076 2.403,2.402 V 0 Z"
                   style="fill:#dce2e9;fill-opacity:1;fill-rule:nonzero;stroke:none;stroke-width:0.0025651"
                   id="path1296" />
              </g>
              <g
                 style="stroke-width:0.0025651"
                 transform="translate(397.9668,500.8306)"
                 id="g1302">
                <path
                   d="m 0,0 v -10.623 c 0,-1.326 1.073,-2.402 2.399,-2.402 1.329,0 2.406,1.076 2.406,2.402 V 0 Z"
                   style="fill:#dce2e9;fill-opacity:1;fill-rule:nonzero;stroke:none;stroke-width:0.0025651"
                   id="path1300" />
              </g>
              <g
                 style="stroke-width:0.0025651"
                 transform="translate(405.9727,500.8306)"
                 id="g1306">
                <path
                   d="m 0,0 v -10.623 c 0,-1.326 1.079,-2.402 2.404,-2.402 1.328,0 2.401,1.076 2.401,2.402 V 0 Z"
                   style="fill:#dce2e9;fill-opacity:1;fill-rule:nonzero;stroke:none;stroke-width:0.0025651"
                   id="path1304" />
              </g>
              <g
                 style="stroke-width:0.0025651"
                 transform="translate(413.9854,500.8306)"
                 id="g1310">
                <path
                   d="m 0,0 v -10.623 c 0,-1.326 1.071,-2.402 2.399,-2.402 1.326,0 2.405,1.076 2.405,2.402 V 0 Z"
                   style="fill:#dce2e9;fill-opacity:1;fill-rule:nonzero;stroke:none;stroke-width:0.0025651"
                   id="path1308" />
              </g>
            </g>
          </g>
        </g>
        <g
           style="stroke-width:0.0025651"
           id="g1316"
           transform="translate(413.9854,452.7388)">
          <path
             d="M 0,0 C 0,1.326 1.075,2.402 2.401,2.402 3.729,2.402 4.804,1.326 4.804,0 v -13.348 c 0,-1.325 -1.075,-2.402 -2.403,-2.402 -1.326,0 -2.401,1.077 -2.401,2.402 z"
             style="fill:#dce2e9;fill-opacity:1;fill-rule:nonzero;stroke:none;stroke-width:0.0025651"
             id="path1318" />
        </g>
        <g
           style="stroke-width:0.0025651"
           id="g1320"
           transform="translate(405.9766,452.7388)">
          <path
             d="M 0,0 C 0,1.326 1.075,2.402 2.402,2.402 3.729,2.402 4.805,1.326 4.805,0 v -13.348 c 0,-1.325 -1.076,-2.402 -2.403,-2.402 -1.327,0 -2.402,1.077 -2.402,2.402 z"
             style="fill:#dce2e9;fill-opacity:1;fill-rule:nonzero;stroke:none;stroke-width:0.0025651"
             id="path1322" />
        </g>
        <g
           style="stroke-width:0.0025651"
           id="g1324"
           transform="translate(397.9668,452.7388)">
          <path
             d="m 0,0 c 0,1.326 1.077,2.402 2.405,2.402 1.326,0 2.4,-1.076 2.4,-2.402 v -13.348 c 0,-1.325 -1.074,-2.402 -2.4,-2.402 -1.328,0 -2.405,1.077 -2.405,2.402 z"
             style="fill:#dce2e9;fill-opacity:1;fill-rule:nonzero;stroke:none;stroke-width:0.0025651"
             id="path1326" />
        </g>
        <g
           style="stroke-width:0.0025651"
           id="g1328"
           transform="translate(389.9609,452.7388)">
          <path
             d="M 0,0 C 0,1.326 1.072,2.402 2.4,2.402 3.726,2.402 4.805,1.326 4.805,0 v -13.348 c 0,-1.325 -1.079,-2.402 -2.405,-2.402 -1.328,0 -2.4,1.077 -2.4,2.402 z"
             style="fill:#dce2e9;fill-opacity:1;fill-rule:nonzero;stroke:none;stroke-width:0.0025651"
             id="path1330" />
        </g>
        <g
           style="stroke-width:0.0025651"
           id="g1332"
           transform="translate(381.9492,452.7388)">
          <path
             d="m 0,0 c 0,1.326 1.079,2.402 2.404,2.402 1.327,0 2.4,-1.076 2.4,-2.402 v -13.348 c 0,-1.325 -1.073,-2.402 -2.4,-2.402 -1.325,0 -2.404,1.077 -2.404,2.402 z"
             style="fill:#dce2e9;fill-opacity:1;fill-rule:nonzero;stroke:none;stroke-width:0.0025651"
             id="path1334" />
        </g>
        <g
           style="stroke-width:0.0025651"
           id="g1336">
          <g
             style="stroke-width:0.0025651"
             id="g1338" />
          <g
             style="stroke-width:0.0025651"
             id="g1366">
            <g
               style="stroke-width:0.0025651"
               clip-path="url(#clipPath1342)"
               id="g1364">
              <g
                 style="stroke-width:0.0025651"
                 transform="translate(418.7891,442.1162)"
                 id="g1346">
                <path
                   d="m 0,0 v 10.623 c 0,1.325 -1.075,2.401 -2.402,2.401 -1.327,0 -2.402,-1.076 -2.402,-2.401 V 0 Z"
                   style="fill:#dce2e9;fill-opacity:1;fill-rule:nonzero;stroke:none;stroke-width:0.0025651"
                   id="path1344" />
              </g>
              <g
                 style="stroke-width:0.0025651"
                 transform="translate(410.7812,442.1162)"
                 id="g1350">
                <path
                   d="m 0,0 v 10.623 c 0,1.325 -1.076,2.401 -2.402,2.401 -1.327,0 -2.403,-1.076 -2.403,-2.401 V 0 Z"
                   style="fill:#dce2e9;fill-opacity:1;fill-rule:nonzero;stroke:none;stroke-width:0.0025651"
                   id="path1348" />
              </g>
              <g
                 style="stroke-width:0.0025651"
                 transform="translate(402.7715,442.1162)"
                 id="g1354">
                <path
                   d="m 0,0 v 10.623 c 0,1.325 -1.073,2.401 -2.399,2.401 -1.329,0 -2.406,-1.076 -2.406,-2.401 V 0 Z"
                   style="fill:#dce2e9;fill-opacity:1;fill-rule:nonzero;stroke:none;stroke-width:0.0025651"
                   id="path1352" />
              </g>
              <g
                 style="stroke-width:0.0025651"
                 transform="translate(394.7656,442.1162)"
                 id="g1358">
                <path
                   d="m 0,0 v 10.623 c 0,1.325 -1.079,2.401 -2.404,2.401 -1.328,0 -2.401,-1.076 -2.401,-2.401 V 0 Z"
                   style="fill:#dce2e9;fill-opacity:1;fill-rule:nonzero;stroke:none;stroke-width:0.0025651"
                   id="path1356" />
              </g>
              <g
                 style="stroke-width:0.0025651"
                 transform="translate(386.7529,442.1162)"
                 id="g1362">
                <path
                   d="m 0,0 v 10.623 c 0,1.325 -1.072,2.401 -2.399,2.401 -1.326,0 -2.405,-1.076 -2.405,-2.401 V 0 Z"
                   style="fill:#dce2e9;fill-opacity:1;fill-rule:nonzero;stroke:none;stroke-width:0.0025651"
                   id="path1360" />
              </g>
            </g>
          </g>
        </g>
        <g
           style="stroke-width:0.0025651"
           id="g1368"
           transform="translate(427.9277,451.521)">
          <path
             d="m 0,0 c 0,-4.207 -3.412,-7.618 -7.619,-7.618 h -39.893 c -4.211,0 -7.62,3.411 -7.62,7.618 v 39.894 c 0,4.209 3.409,7.619 7.62,7.619 H -7.619 C -3.412,47.513 0,44.103 0,39.894 Z"
             style="fill:#dce2e9;fill-opacity:1;fill-rule:nonzero;stroke:none;stroke-width:0.0025651"
             id="path1370" />
        </g>
        <g
           style="stroke-width:0.0025651"
           id="g1372">
          <g
             style="stroke-width:0.0025651"
             id="g1374" />
          <g
             style="stroke-width:0.0025651"
             id="g1386">
            <g
               style="stroke-width:0.0025651"
               clip-path="url(#clipPath1378)"
               id="g1384">
              <g
                 style="stroke-width:0.0025651"
                 transform="translate(384.1709,448.9292)"
                 id="g1382">
                <path
                   d="M 0,0 C -3.501,0 -6.351,2.848 -6.351,6.349 V 38.73 c 0,3.5 2.85,6.348 6.351,6.348 h 32.38 c 3.501,0 6.349,-2.848 6.349,-6.348 V 6.349 C 38.729,2.848 35.881,0 32.38,0 Z"
                   style="fill:#dce2e9;fill-opacity:1;fill-rule:nonzero;stroke:none;stroke-width:0.0025651"
                   id="path1380" />
              </g>
            </g>
          </g>
        </g>
        <g
           style="stroke-width:0.0025651"
           id="g1388"
           transform="translate(421.6309,455.2778)">
          <path
             d="m 0,0 c 0,-2.805 -2.275,-5.079 -5.08,-5.079 h -32.38 c -2.806,0 -5.079,2.274 -5.079,5.079 v 32.381 c 0,2.805 2.273,5.079 5.079,5.079 H -5.08 C -2.275,37.46 0,35.186 0,32.381 Z"
             style="fill:#8c93a1;fill-opacity:1;fill-rule:nonzero;stroke:none;stroke-width:0.0025651"
             id="path1390" />
        </g>
        <g
           style="stroke-width:0.0025651"
           id="g1392">
          <g
             style="stroke-width:0.0025651"
             id="g1394" />
          <g
             style="stroke-width:0.0025651"
             id="g1406">
            <g
               clip-path="url(#clipPath1398)"
               id="g1404"
               style="opacity:0.5;stroke-width:0.0025651">
              <g
                 style="stroke-width:0.0025651"
                 transform="translate(400.3623,470.0742)"
                 id="g1402">
                <path
                   d="m 0,0 c 11.896,0 22.245,6.623 27.565,16.381 v 4.96 c 0,4.209 -3.412,7.619 -7.619,7.619 h -39.892 c -4.211,0 -7.62,-3.41 -7.62,-7.619 v -4.96 C -22.247,6.623 -11.897,0 0,0"
                   style="fill:#dce2e9;fill-opacity:1;fill-rule:nonzero;stroke:none;stroke-width:0.0025651"
                   id="path1400" />
              </g>
            </g>
          </g>
        </g>
        <g
           style="stroke-width:0.0025651"
           id="g1408"
           transform="translate(411.7891,462.5796)">
          <path
             d="m 0,0 c 0,-1.403 -1.137,-2.54 -2.54,-2.54 h -17.777 c -1.402,0 -2.54,1.137 -2.54,2.54 v 17.777 c 0,1.403 1.138,2.54 2.54,2.54 H -2.54 c 1.403,0 2.54,-1.137 2.54,-2.54 z"
             style="fill:#dce2e9;fill-opacity:1;fill-rule:nonzero;stroke:none;stroke-width:0.0025651"
             id="path1410" />
        </g>
        <g
           style="stroke-width:0.0025651"
           id="g1412"
           transform="translate(409.8848,464.0615)">
          <path
             d="m 0,0 c 0,-1.169 -0.947,-2.117 -2.115,-2.117 h -14.817 c -1.169,0 -2.116,0.948 -2.116,2.117 v 14.814 c 0,1.169 0.947,2.117 2.116,2.117 H -2.115 C -0.947,16.931 0,15.983 0,14.814 Z"
             style="fill:#ffc52f;fill-opacity:1;fill-rule:nonzero;stroke:none;stroke-width:0.0025651"
             id="path1414" />
        </g>
        <g
           style="stroke-width:0.0025651"
           id="g1416">
          <g
             style="stroke-width:0.0025651"
             id="g1418" />
          <g
             style="stroke-width:0.0025651"
             id="g1430">
            <g
               clip-path="url(#clipPath1422)"
               id="g1428"
               style="opacity:0.80000299;stroke-width:0.0025651">
              <g
                 style="stroke-width:0.0025651"
                 transform="translate(407.7695,480.9922)"
                 id="g1426">
                <path
                   d="m 0,0 h -14.816 c -1.169,0 -2.117,-0.948 -2.117,-2.117 v -7.324 c 3.005,-0.956 6.203,-1.477 9.526,-1.477 3.32,0 6.518,0.521 9.522,1.477 v 7.324 C 2.115,-0.948 1.168,0 0,0"
                   style="fill:#ffc52f;fill-opacity:1;fill-rule:nonzero;stroke:none;stroke-width:0.0025651"
                   id="path1424" />
              </g>
            </g>
          </g>
        </g>
      </g>
    </g>
  </g>
</svg>
