<?xml version="1.0" encoding="UTF-8" standalone="no"?>
<svg
   width="24"
   height="24"
   overflow="visible"
   version="1.1"
   id="svg5"
   xmlns="http://www.w3.org/2000/svg"
   xmlns:svg="http://www.w3.org/2000/svg">
  <defs
     id="defs5" />
  <g
     id="g5"
     transform="matrix(0.01250065,0,0,0.01250065,-3.467714e-7,5.999688)">
    <path
       fill="#ffffff"
       d="m 1880.4,880.2 c 0,21.4 -15.4,38.9 -34.5,39.7 -12.2,-2 -1766.2,2.5 -1777,-0.8 -16.4,-3.7 -28.8,-19.8 -28.8,-39 V 79.7 c 0,-21.9 16,-39.8 36.2,-39.8 1.1,-0.4 1768.5,0.2 1769.7,0 19.2,0.8 34.5,18.3 34.5,39.7 v 800.5 z"
       id="path1"
       style="fill:none" />
    <path
       d="M 1844.5,0 H 75.7 C 34,0 0,35.6 0,79.5 V 880.6 C 0,924.4 34,960 75.7,960 h 1768.7 c 41.7,0 75.5,-35.6 75.5,-79.5 V 79.5 C 1920,35.6 1886.1,0 1844.5,0 Z m 36,880.2 c 0,21.4 -15.4,38.9 -34.5,39.7 -12.2,-2 -1766.2,2.5 -1777,-0.8 -16.4,-3.7 -28.8,-19.8 -28.8,-39 V 79.7 c 0,-21.9 16,-39.8 36.2,-39.8 1.1,-0.4 1768.5,0.2 1769.7,0 19.2,0.8 34.5,18.3 34.5,39.7 v 800.5 z"
       id="path2"
       style="fill:#ffffff" />
    <g
       fill="#2c5b9c"
       id="g4">
      <path
         fill-rule="evenodd"
         d="M 119.5,301 246.4,480 119.5,659 Z"
         id="path3"
         style="fill:#ffffff" />
      <path
         d="m 147,840.5 c -21.5,0.6 -35.6,-26 -22.4,-43.4 L 348.7,480 124.5,162.9 a 27.481357,27.481357 0 1 1 44.9,-31.7 l 235.3,333 a 27.5,27.5 0 0 1 0,31.7 l -235.3,333 A 27.5,27.5 0 0 1 147,840.5 Z m 1625.5,-395 H 508.4 c -8.9,0 -17.3,-4.3 -22.5,-11.6 l -191.4,-271 a 27.481357,27.481357 0 1 1 44.9,-31.7 l 183.2,259.3 h 1249.8 c 35.4,0.4 36.7,54.4 0.1,55 z M 317,840.5 c -21.3,0.6 -35.7,-25.9 -22.4,-43.4 L 486,526.1 a 27.5,27.5 0 0 1 22.5,-11.6 h 1264.1 c 35.4,0.5 36.8,54.3 0,55 H 522.8 L 339.6,828.8 a 27.5,27.5 0 0 1 -22.5,11.6 z"
         id="path4"
         style="fill:#ffffff" />
    </g>
    <path
       fill-rule="evenodd"
       d="m 890.6,805.4 c 32.1,0 32.4,34.4 0,34.4 H 774.3 c -17.8,0 -27.4,-5.1 -27.4,-29.3 V 682.4 c 0,-23.9 8,-29.5 27.4,-29.5 h 117.3 c 25.4,0 24.7,32.5 0,32.5 h -100 V 725 h 85.7 c 31.8,0 27.9,32.1 0,32.1 h -85.7 v 48.2 h 99 z m 675.7,0 c 32.1,0 32.4,34.4 0,34.4 H 1450 c -17.8,0 -27.4,-5.1 -27.4,-29.3 V 682.4 c 0,-23.9 8,-29.5 27.4,-29.5 h 117.3 c 25.4,0 24.7,32.5 0,32.5 h -100 V 725 h 85.7 c 31.8,0 27.9,32.1 0,32.1 h -85.7 v 48.2 h 99 z m -466.5,-34.7 h -33.7 c -24.7,0 -26.9,-32.1 0,-32.1 h 48.6 c 9.8,0 26.4,0.6 26.4,17.7 v 71.3 c 0,20.8 -28.1,22.1 -32.5,4.1 l -3.5,-14 c -8.3,9.4 -24.8,27.2 -66.8,27.2 -42,0 -101.1,-20.1 -101.1,-98.6 0,-78.5 53.9,-98.2 104.7,-98.2 25.7,0 46.4,6.6 54.1,10 30.6,13.3 34.4,28.9 34.4,35.2 0,13.2 -19.5,31.5 -45.3,5.7 -10.3,-10.3 -18.9,-17.9 -41.1,-17.9 -22.2,0 -59.6,8.1 -59.6,65 0,56.9 42.7,64.8 61.6,64.8 18.9,0 26.2,-3.7 36,-10.8 a 45.7,45.7 0 0 0 17.8,-29.4 z m 237.8,0 h -33.7 c -24.7,0 -26.9,-32.1 0,-32.1 h 48.6 c 9.8,0 26.4,0.6 26.4,17.7 v 71.3 c 0,20.8 -28.1,22.1 -32.5,4.1 l -3.5,-14 c -8.3,9.4 -24.8,27.2 -66.8,27.2 -42,0 -101.1,-20.1 -101.1,-98.6 0,-78.5 53.9,-98.2 104.7,-98.2 25.7,0 46.4,6.6 54.1,10 30.6,13.3 34.4,28.9 34.4,35.2 0,13.2 -19.5,31.5 -45.3,5.7 -10.3,-10.3 -18.9,-17.9 -41.1,-17.9 -22.2,0 -59.6,8.1 -59.6,65 0,56.9 42.7,64.8 61.6,64.8 18.9,0 26.2,-3.7 36,-10.8 a 45.7,45.7 0 0 0 17.8,-29.4 z m 330.1,-85.6 v 49.6 h 53.3 c 16.9,0 33.7,-3.9 33.7,-24.8 0,-20.9 -15.9,-24.8 -31.7,-24.8 z m 0,136.4 c 0,28.2 -45.3,27.3 -45.3,0 v -139 c 0,-18 2.8,-29.5 27.4,-29.5 h 79.3 c 67.9,0 70.9,36.1 70.9,53.1 a 42.6,42.6 0 0 1 -32.9,44.1 33.8,33.8 0 0 1 26.6,31.5 c 0.3,3.5 1.4,22.8 2,24.8 0.4,2.2 3.9,16.9 3.9,18.5 0,15 -15.6,17.3 -22.6,17.3 -15.7,0 -26.2,-3 -28.7,-42.1 -1.5,-8.3 2.6,-33.1 -32.7,-33.1 h -48 z M 619,648.1 c 41.1,0 58.5,13.2 64.1,17.1 12,8 26.5,29.8 7.5,40.4 -19,10.6 -33.3,-9.7 -37,-13.3 -3.7,-3.6 -11.1,-13 -39.7,-13 -28.6,0 -34.5,14.8 -34.5,21.5 0,10.6 7.9,17.8 52.4,26.9 44.5,9.1 79.7,16 79.7,57.1 0,41.1 -38.8,60.2 -86.2,60.2 -47.4,0 -88.8,-24.9 -88.8,-47.6 0,-22.7 29.2,-23.4 40.3,-8.4 11.1,15 17.8,23.8 48.2,23.8 30.4,0 42.2,-10.1 42.2,-24.2 0,-14.1 -23.6,-19.8 -50.3,-26.4 -26.7,-6.6 -81.2,-8.3 -81.2,-57.1 0,-48.8 53.6,-56.9 83.3,-57 z"
       id="path5"
       style="fill:#ffffff" />
  </g>
</svg>
