<?xml version="1.0" encoding="UTF-8" standalone="no"?>
<svg
   viewBox="0 0 24 24"
   version="1.1"
   id="svg20"
   width="24"
   height="24"
   xmlns="http://www.w3.org/2000/svg"
   xmlns:svg="http://www.w3.org/2000/svg">
  <defs
     id="defs6">
    <style
       id="style1">.cls-1{fill:#7929d2;}.cls-2{fill:#9454db;}.cls-3{fill:#af7fe4;}.cls-4{fill:url(#linear-gradient);}.cls-5{fill:url(#linear-gradient-2);}.cls-6{fill:url(#linear-gradient-3);}.cls-7{fill:url(#linear-gradient-4);}.cls-8{fill:#2d3136;}</style>
  </defs>
  <g
     id="Colored_Positive"
     data-name="Colored Positive"
     transform="translate(-4.1549999,-35.275001)">
    <polygon
       class="cls-1"
       points="134.589,148.235 139.235,121.816 108.213,134.914 "
       id="polygon6"
       transform="matrix(0.09858125,0,0,0.09858125,2.7595823,40.163497)"
       style="fill:#000000" />
    <polygon
       class="cls-2"
       points="46.839,152.801 72.257,139.174 39.167,126.786 "
       id="polygon7"
       transform="matrix(0.09858125,0,0,0.09858125,2.7595823,40.163497)"
       style="fill:#000000" />
    <polygon
       class="cls-3"
       points="72.257,139.174 87.948,115.889 108.213,134.914 "
       id="polygon8"
       transform="matrix(0.09858125,0,0,0.09858125,2.7595823,40.163497)"
       style="fill:#000000" />
    <polygon
       class="cls-3"
       points="14.155,101.821 43.162,98.013 39.167,126.786 "
       id="polygon9"
       transform="matrix(0.09858125,0,0,0.09858125,2.7595823,40.163497)"
       style="fill:#000000" />
    <polygon
       class="cls-4"
       points="257.609,95.332 139.235,121.815 220.898,46.688 "
       id="polygon10"
       style="fill:#000000"
       transform="matrix(0.09858125,0,0,0.09858125,2.7595823,40.163497)" />
    <polygon
       class="cls-5"
       points="220.898,46.688 139.235,121.815 174.116,11.275 "
       id="polygon11"
       style="fill:#000000"
       transform="matrix(0.09858125,0,0,0.09858125,2.7595823,40.163497)" />
    <polygon
       class="cls-6"
       points="220.898,46.688 174.116,11.275 257.609,11.275 "
       id="polygon12"
       style="fill:#000000"
       transform="matrix(0.09858125,0,0,0.09858125,2.7595823,40.163497)" />
    <polygon
       class="cls-7"
       points="220.898,46.688 257.609,95.332 257.609,11.275 "
       id="polygon13"
       style="fill:#000000"
       transform="matrix(0.09858125,0,0,0.09858125,2.7595823,40.163497)" />
  </g>
</svg>
